<mxfile host="www.draw.io" modified="2020-02-06T11:56:17.312Z" agent="Mozilla/5.0 (Windows NT 10.0; Win64; x64; rv:68.0) Gecko/20100101 Firefox/68.0" etag="zm2_MA3r2xDRL5ahPH1q" version="12.6.5" type="github">
  <diagram id="6a731a19-8d31-9384-78a2-239565b7b9f0" name="Page-1">
    <mxGraphModel dx="2899" dy="1749" grid="1" gridSize="10" guides="1" tooltips="1" connect="1" arrows="1" fold="1" page="1" pageScale="1" pageWidth="1169" pageHeight="827" background="#ffffff" math="0" shadow="0">
      <root>
        <mxCell id="0"/>
        <mxCell id="1" parent="0"/>
        <mxCell id="1745" value="" style="edgeStyle=none;rounded=0;jumpStyle=none;html=1;shadow=0;labelBackgroundColor=none;startArrow=none;startFill=0;endArrow=classic;endFill=1;jettySize=auto;orthogonalLoop=1;strokeColor=#2F5B7C;strokeWidth=3;fontFamily=Helvetica;fontSize=16;fontColor=#23445D;spacing=5;" parent="1" source="1749" target="1764" edge="1">
          <mxGeometry relative="1" as="geometry"/>
        </mxCell>
        <mxCell id="1748" value="" style="edgeStyle=none;rounded=0;jumpStyle=none;html=1;shadow=0;labelBackgroundColor=none;startArrow=none;startFill=0;endArrow=classic;endFill=1;jettySize=auto;orthogonalLoop=1;strokeColor=#2F5B7C;strokeWidth=3;fontFamily=Helvetica;fontSize=16;fontColor=#23445D;spacing=5;" parent="1" source="1749" target="1753" edge="1">
          <mxGeometry relative="1" as="geometry"/>
        </mxCell>
        <mxCell id="1749" value="Organisationstool f체r Band" style="rounded=1;whiteSpace=wrap;html=1;shadow=0;labelBackgroundColor=none;strokeColor=none;strokeWidth=3;fillColor=#2F5B7C;fontFamily=Helvetica;fontSize=16;fontColor=#FFFFFF;align=center;fontStyle=1;spacing=5;arcSize=7;perimeterSpacing=2;" parent="1" vertex="1">
          <mxGeometry x="-455" y="20.5" width="150" height="70" as="geometry"/>
        </mxCell>
        <mxCell id="1751" value="" style="edgeStyle=none;rounded=1;jumpStyle=none;html=1;shadow=0;labelBackgroundColor=none;startArrow=none;startFill=0;jettySize=auto;orthogonalLoop=1;strokeColor=#E85642;strokeWidth=3;fontFamily=Helvetica;fontSize=14;fontColor=#FFFFFF;spacing=5;fontStyle=1;fillColor=#b0e3e6;" parent="1" source="1753" target="1755" edge="1">
          <mxGeometry relative="1" as="geometry"/>
        </mxCell>
        <mxCell id="1752" value="" style="edgeStyle=none;rounded=1;jumpStyle=none;html=1;shadow=0;labelBackgroundColor=none;startArrow=none;startFill=0;jettySize=auto;orthogonalLoop=1;strokeColor=#E85642;strokeWidth=3;fontFamily=Helvetica;fontSize=14;fontColor=#FFFFFF;spacing=5;fontStyle=1;fillColor=#b0e3e6;" parent="1" source="1753" target="1754" edge="1">
          <mxGeometry relative="1" as="geometry"/>
        </mxCell>
        <mxCell id="g6IqDXz1Ok6miaDa0M3m-1898" value="" style="edgeStyle=none;rounded=0;orthogonalLoop=1;jettySize=auto;html=1;strokeColor=#808080;" parent="1" source="1753" target="g6IqDXz1Ok6miaDa0M3m-1885" edge="1">
          <mxGeometry relative="1" as="geometry"/>
        </mxCell>
        <mxCell id="1753" value="Technische" style="rounded=1;whiteSpace=wrap;html=1;shadow=0;labelBackgroundColor=none;strokeColor=#B20000;strokeWidth=3;fillColor=#e51400;fontFamily=Helvetica;fontSize=14;fontColor=#ffffff;align=center;spacing=5;fontStyle=1;arcSize=7;perimeterSpacing=2;" parent="1" vertex="1">
          <mxGeometry x="-455" y="210" width="150" height="60" as="geometry"/>
        </mxCell>
        <mxCell id="g6IqDXz1Ok6miaDa0M3m-1918" value="" style="edgeStyle=none;rounded=0;orthogonalLoop=1;jettySize=auto;html=1;strokeColor=#808080;" parent="1" source="1754" target="g6IqDXz1Ok6miaDa0M3m-1917" edge="1">
          <mxGeometry relative="1" as="geometry"/>
        </mxCell>
        <mxCell id="1754" value="Oberfl채che" style="rounded=1;whiteSpace=wrap;html=1;shadow=0;labelBackgroundColor=none;strokeColor=#b85450;strokeWidth=3;fillColor=#f8cecc;fontFamily=Helvetica;fontSize=14;align=center;spacing=5;fontStyle=0;arcSize=7;perimeterSpacing=2;gradientColor=#ea6b66;" parent="1" vertex="1">
          <mxGeometry x="-250" y="210" width="150" height="60" as="geometry"/>
        </mxCell>
        <mxCell id="g6IqDXz1Ok6miaDa0M3m-1917" value="Responsive" style="rounded=1;whiteSpace=wrap;html=1;shadow=0;labelBackgroundColor=none;strokeColor=#ae4132;strokeWidth=3;fillColor=#fad9d5;fontFamily=Helvetica;fontSize=14;align=center;spacing=5;fontStyle=0;arcSize=7;perimeterSpacing=2;" parent="1" vertex="1">
          <mxGeometry x="-20" y="210" width="150" height="60" as="geometry"/>
        </mxCell>
        <mxCell id="g6IqDXz1Ok6miaDa0M3m-1908" value="" style="edgeStyle=none;rounded=0;orthogonalLoop=1;jettySize=auto;html=1;strokeColor=#808080;" parent="1" source="1755" target="g6IqDXz1Ok6miaDa0M3m-1907" edge="1">
          <mxGeometry relative="1" as="geometry"/>
        </mxCell>
        <mxCell id="g6IqDXz1Ok6miaDa0M3m-1910" value="" style="edgeStyle=none;rounded=0;orthogonalLoop=1;jettySize=auto;html=1;strokeColor=#808080;" parent="1" source="1755" target="g6IqDXz1Ok6miaDa0M3m-1909" edge="1">
          <mxGeometry relative="1" as="geometry"/>
        </mxCell>
        <mxCell id="1755" value="Schnittstellen" style="rounded=1;whiteSpace=wrap;html=1;shadow=0;labelBackgroundColor=none;strokeColor=#b85450;strokeWidth=3;fillColor=#f8cecc;fontFamily=Helvetica;fontSize=14;align=center;spacing=5;fontStyle=0;arcSize=7;perimeterSpacing=2;gradientColor=#ea6b66;" parent="1" vertex="1">
          <mxGeometry x="-650" y="370" width="150" height="60" as="geometry"/>
        </mxCell>
        <mxCell id="g6IqDXz1Ok6miaDa0M3m-1909" value="kalenderschnittstelle 체ber standardformat" style="rounded=1;whiteSpace=wrap;html=1;shadow=0;labelBackgroundColor=none;strokeColor=#ae4132;strokeWidth=3;fillColor=#fad9d5;fontFamily=Helvetica;fontSize=14;align=center;spacing=5;fontStyle=0;arcSize=7;perimeterSpacing=2;" parent="1" vertex="1">
          <mxGeometry x="-880" y="450" width="150" height="60" as="geometry"/>
        </mxCell>
        <mxCell id="g6IqDXz1Ok6miaDa0M3m-1907" value="Kontaktexport 체ber Standardformat" style="rounded=1;whiteSpace=wrap;html=1;shadow=0;labelBackgroundColor=none;strokeColor=#ae4132;strokeWidth=3;fillColor=#fad9d5;fontFamily=Helvetica;fontSize=14;align=center;spacing=5;fontStyle=0;arcSize=7;perimeterSpacing=2;" parent="1" vertex="1">
          <mxGeometry x="-880" y="370" width="150" height="60" as="geometry"/>
        </mxCell>
        <mxCell id="g6IqDXz1Ok6miaDa0M3m-1809" value="" style="edgeStyle=none;rounded=0;orthogonalLoop=1;jettySize=auto;html=1;strokeColor=#808080;" parent="1" source="1764" target="g6IqDXz1Ok6miaDa0M3m-1808" edge="1">
          <mxGeometry relative="1" as="geometry"/>
        </mxCell>
        <mxCell id="g6IqDXz1Ok6miaDa0M3m-1815" value="" style="edgeStyle=none;rounded=0;orthogonalLoop=1;jettySize=auto;html=1;strokeColor=#808080;" parent="1" source="1764" target="g6IqDXz1Ok6miaDa0M3m-1814" edge="1">
          <mxGeometry relative="1" as="geometry"/>
        </mxCell>
        <mxCell id="1764" value="Funktionen" style="rounded=1;whiteSpace=wrap;html=1;shadow=0;labelBackgroundColor=none;strokeColor=#005700;strokeWidth=3;fillColor=#008a00;fontFamily=Helvetica;fontSize=14;align=center;spacing=5;fontStyle=1;arcSize=7;perimeterSpacing=2;fontColor=#ffffff;" parent="1" vertex="1">
          <mxGeometry x="-455" y="-176.75" width="150" height="60" as="geometry"/>
        </mxCell>
        <mxCell id="g6IqDXz1Ok6miaDa0M3m-1814" value="Dokumenten-verwaltung" style="rounded=1;whiteSpace=wrap;html=1;shadow=0;labelBackgroundColor=none;strokeColor=#2D7600;strokeWidth=3;fillColor=#60a917;fontFamily=Helvetica;fontSize=14;align=center;spacing=5;fontStyle=1;arcSize=7;perimeterSpacing=2;fontColor=#ffffff;" parent="1" vertex="1">
          <mxGeometry x="-455" y="-710" width="150" height="60" as="geometry"/>
        </mxCell>
        <mxCell id="g6IqDXz1Ok6miaDa0M3m-1811" value="" style="edgeStyle=none;rounded=0;orthogonalLoop=1;jettySize=auto;html=1;strokeColor=#808080;" parent="1" source="g6IqDXz1Ok6miaDa0M3m-1808" target="g6IqDXz1Ok6miaDa0M3m-1810" edge="1">
          <mxGeometry relative="1" as="geometry"/>
        </mxCell>
        <mxCell id="g6IqDXz1Ok6miaDa0M3m-1813" value="" style="edgeStyle=none;rounded=0;orthogonalLoop=1;jettySize=auto;html=1;strokeColor=#808080;" parent="1" source="g6IqDXz1Ok6miaDa0M3m-1808" target="g6IqDXz1Ok6miaDa0M3m-1812" edge="1">
          <mxGeometry relative="1" as="geometry"/>
        </mxCell>
        <mxCell id="g6IqDXz1Ok6miaDa0M3m-1808" value="Inventar verwalten" style="rounded=1;whiteSpace=wrap;html=1;shadow=0;labelBackgroundColor=none;strokeColor=#2D7600;strokeWidth=3;fillColor=#60a917;fontFamily=Helvetica;fontSize=14;align=center;spacing=5;fontStyle=1;arcSize=7;perimeterSpacing=2;fontColor=#ffffff;" parent="1" vertex="1">
          <mxGeometry x="-786" y="-730" width="150" height="60" as="geometry"/>
        </mxCell>
        <mxCell id="g6IqDXz1Ok6miaDa0M3m-1812" value="Inventar verwalten" style="rounded=1;whiteSpace=wrap;html=1;shadow=0;labelBackgroundColor=none;strokeColor=#82b366;strokeWidth=3;fillColor=#d5e8d4;fontFamily=Helvetica;fontSize=14;align=center;spacing=5;fontStyle=0;arcSize=7;perimeterSpacing=2;gradientColor=#97d077;" parent="1" vertex="1">
          <mxGeometry x="-956" y="-810" width="150" height="60" as="geometry"/>
        </mxCell>
        <mxCell id="g6IqDXz1Ok6miaDa0M3m-1810" value="Equipment verwalten" style="rounded=1;whiteSpace=wrap;html=1;shadow=0;labelBackgroundColor=none;strokeColor=#82b366;strokeWidth=3;fillColor=#d5e8d4;fontFamily=Helvetica;fontSize=14;align=center;spacing=5;fontStyle=0;arcSize=7;perimeterSpacing=2;gradientColor=#97d077;" parent="1" vertex="1">
          <mxGeometry x="-956" y="-730" width="150" height="60" as="geometry"/>
        </mxCell>
        <mxCell id="g6IqDXz1Ok6miaDa0M3m-1883" value="" style="edgeStyle=none;rounded=0;orthogonalLoop=1;jettySize=auto;html=1;strokeColor=#808080;" parent="1" source="g6IqDXz1Ok6miaDa0M3m-1794" target="g6IqDXz1Ok6miaDa0M3m-1882" edge="1">
          <mxGeometry relative="1" as="geometry"/>
        </mxCell>
        <mxCell id="1765" value="Exportierbar" style="rounded=1;whiteSpace=wrap;html=1;shadow=0;labelBackgroundColor=none;strokeColor=#82b366;strokeWidth=3;fillColor=#d5e8d4;fontFamily=Helvetica;fontSize=14;align=center;spacing=5;arcSize=7;perimeterSpacing=2;gradientColor=#97d077;" parent="1" vertex="1">
          <mxGeometry x="-956" y="-630" width="150" height="60" as="geometry"/>
        </mxCell>
        <mxCell id="g6IqDXz1Ok6miaDa0M3m-1882" value="Eintr채ge mit Datum, Uhrzeit, Ort, Bezeichnung, ..." style="rounded=1;whiteSpace=wrap;html=1;shadow=0;labelBackgroundColor=none;strokeColor=#6c8ebf;strokeWidth=3;fillColor=#dae8fc;fontFamily=Helvetica;fontSize=14;align=center;spacing=5;arcSize=7;perimeterSpacing=2;" parent="1" vertex="1">
          <mxGeometry x="-1130" y="-630" width="150" height="60" as="geometry"/>
        </mxCell>
        <mxCell id="1766" value="" style="edgeStyle=none;rounded=0;jumpStyle=none;html=1;shadow=0;labelBackgroundColor=none;startArrow=none;startFill=0;endArrow=classic;endFill=1;jettySize=auto;orthogonalLoop=1;strokeColor=#82b366;strokeWidth=3;fontFamily=Helvetica;fontSize=14;fontColor=#FFFFFF;spacing=5;gradientColor=#97d077;fillColor=#d5e8d4;" parent="1" source="g6IqDXz1Ok6miaDa0M3m-1794" target="1765" edge="1">
          <mxGeometry relative="1" as="geometry">
            <mxPoint x="-840" y="-500" as="sourcePoint"/>
          </mxGeometry>
        </mxCell>
        <mxCell id="g6IqDXz1Ok6miaDa0M3m-1795" value="" style="edgeStyle=none;rounded=0;orthogonalLoop=1;jettySize=auto;html=1;strokeColor=#808080;" parent="1" source="1767" target="g6IqDXz1Ok6miaDa0M3m-1794" edge="1">
          <mxGeometry relative="1" as="geometry"/>
        </mxCell>
        <mxCell id="g6IqDXz1Ok6miaDa0M3m-1799" value="" style="edgeStyle=none;rounded=0;orthogonalLoop=1;jettySize=auto;html=1;strokeColor=#808080;" parent="1" source="1764" target="g6IqDXz1Ok6miaDa0M3m-1798" edge="1">
          <mxGeometry relative="1" as="geometry"/>
        </mxCell>
        <mxCell id="1767" value="Kalender" style="rounded=1;whiteSpace=wrap;html=1;shadow=0;labelBackgroundColor=none;strokeColor=#2D7600;strokeWidth=3;fillColor=#60a917;fontFamily=Helvetica;fontSize=14;align=center;spacing=5;arcSize=7;perimeterSpacing=2;glass=0;comic=0;fontColor=#ffffff;" parent="1" vertex="1">
          <mxGeometry x="-786" y="-550" width="150" height="60" as="geometry"/>
        </mxCell>
        <mxCell id="g6IqDXz1Ok6miaDa0M3m-1801" value="" style="edgeStyle=none;rounded=0;orthogonalLoop=1;jettySize=auto;html=1;strokeColor=#808080;" parent="1" source="g6IqDXz1Ok6miaDa0M3m-1798" target="g6IqDXz1Ok6miaDa0M3m-1800" edge="1">
          <mxGeometry relative="1" as="geometry"/>
        </mxCell>
        <mxCell id="g6IqDXz1Ok6miaDa0M3m-1798" value="Kontaktverwaltung" style="rounded=1;whiteSpace=wrap;html=1;shadow=0;labelBackgroundColor=none;strokeColor=#2D7600;strokeWidth=3;fillColor=#60a917;fontFamily=Helvetica;fontSize=14;align=center;spacing=5;arcSize=7;perimeterSpacing=2;glass=0;comic=0;fontColor=#ffffff;" parent="1" vertex="1">
          <mxGeometry x="-786" y="-340" width="150" height="60" as="geometry"/>
        </mxCell>
        <mxCell id="g6IqDXz1Ok6miaDa0M3m-1803" value="" style="edgeStyle=none;rounded=0;orthogonalLoop=1;jettySize=auto;html=1;strokeColor=#808080;" parent="1" source="g6IqDXz1Ok6miaDa0M3m-1798" target="g6IqDXz1Ok6miaDa0M3m-1802" edge="1">
          <mxGeometry relative="1" as="geometry"/>
        </mxCell>
        <mxCell id="g6IqDXz1Ok6miaDa0M3m-1800" value="Lieferanten&lt;br&gt;verwalten" style="rounded=1;whiteSpace=wrap;html=1;shadow=0;labelBackgroundColor=none;strokeColor=#82b366;strokeWidth=3;fillColor=#d5e8d4;fontFamily=Helvetica;fontSize=14;align=center;spacing=5;arcSize=7;perimeterSpacing=2;glass=0;comic=0;gradientColor=#97d077;" parent="1" vertex="1">
          <mxGeometry x="-786" y="-420" width="150" height="60" as="geometry"/>
        </mxCell>
        <mxCell id="g6IqDXz1Ok6miaDa0M3m-1807" value="" style="edgeStyle=none;rounded=0;orthogonalLoop=1;jettySize=auto;html=1;strokeColor=#808080;exitX=0;exitY=0.5;exitDx=0;exitDy=0;" parent="1" source="g6IqDXz1Ok6miaDa0M3m-1798" target="g6IqDXz1Ok6miaDa0M3m-1806" edge="1">
          <mxGeometry relative="1" as="geometry"/>
        </mxCell>
        <mxCell id="g6IqDXz1Ok6miaDa0M3m-1802" value="Partnerkontakte verwalten" style="rounded=1;whiteSpace=wrap;html=1;shadow=0;labelBackgroundColor=none;strokeColor=#82b366;strokeWidth=3;fillColor=#d5e8d4;fontFamily=Helvetica;fontSize=14;align=center;spacing=5;arcSize=7;perimeterSpacing=2;glass=0;comic=0;gradientColor=#97d077;" parent="1" vertex="1">
          <mxGeometry x="-956" y="-420" width="150" height="60" as="geometry"/>
        </mxCell>
        <mxCell id="g6IqDXz1Ok6miaDa0M3m-1880" value="" style="edgeStyle=none;rounded=0;orthogonalLoop=1;jettySize=auto;html=1;strokeColor=#808080;" parent="1" source="g6IqDXz1Ok6miaDa0M3m-1806" target="g6IqDXz1Ok6miaDa0M3m-1879" edge="1">
          <mxGeometry relative="1" as="geometry"/>
        </mxCell>
        <mxCell id="g6IqDXz1Ok6miaDa0M3m-1806" value="Kundenkontakte verwalten" style="rounded=1;whiteSpace=wrap;html=1;shadow=0;labelBackgroundColor=none;strokeColor=#82b366;strokeWidth=3;fillColor=#d5e8d4;fontFamily=Helvetica;fontSize=14;align=center;spacing=5;arcSize=7;perimeterSpacing=2;glass=0;comic=0;gradientColor=#97d077;" parent="1" vertex="1">
          <mxGeometry x="-956" y="-340" width="150" height="60" as="geometry"/>
        </mxCell>
        <mxCell id="g6IqDXz1Ok6miaDa0M3m-1879" value="Name, Adresse, Bankadresse, Mailadresse, ..." style="rounded=1;whiteSpace=wrap;html=1;shadow=0;labelBackgroundColor=none;strokeColor=#6c8ebf;strokeWidth=3;fillColor=#dae8fc;fontFamily=Helvetica;fontSize=14;align=center;spacing=5;arcSize=7;perimeterSpacing=2;glass=0;comic=0;" parent="1" vertex="1">
          <mxGeometry x="-1130" y="-340" width="150" height="60" as="geometry"/>
        </mxCell>
        <mxCell id="g6IqDXz1Ok6miaDa0M3m-1794" value="Termine Organisieren und verwalten" style="rounded=1;whiteSpace=wrap;html=1;shadow=0;labelBackgroundColor=none;strokeColor=#82b366;strokeWidth=3;fillColor=#d5e8d4;fontFamily=Helvetica;fontSize=14;align=center;spacing=5;arcSize=7;perimeterSpacing=2;glass=0;comic=0;gradientColor=#97d077;" parent="1" vertex="1">
          <mxGeometry x="-956" y="-550" width="150" height="60" as="geometry"/>
        </mxCell>
        <mxCell id="1768" value="" style="edgeStyle=none;rounded=0;jumpStyle=none;html=1;shadow=0;labelBackgroundColor=none;startArrow=none;startFill=0;endArrow=classic;endFill=1;jettySize=auto;orthogonalLoop=1;strokeColor=#82b366;strokeWidth=3;fontFamily=Helvetica;fontSize=14;fontColor=#FFFFFF;spacing=5;gradientColor=#97d077;fillColor=#d5e8d4;" parent="1" source="1764" target="1767" edge="1">
          <mxGeometry relative="1" as="geometry"/>
        </mxCell>
        <mxCell id="g6IqDXz1Ok6miaDa0M3m-1782" value="" style="edgeStyle=orthogonalEdgeStyle;rounded=0;orthogonalLoop=1;jettySize=auto;html=1;strokeColor=#808080;" parent="1" source="1769" target="g6IqDXz1Ok6miaDa0M3m-1781" edge="1">
          <mxGeometry relative="1" as="geometry"/>
        </mxCell>
        <mxCell id="g6IqDXz1Ok6miaDa0M3m-1784" value="" style="rounded=0;orthogonalLoop=1;jettySize=auto;html=1;strokeColor=#808080;" parent="1" source="1769" target="g6IqDXz1Ok6miaDa0M3m-1783" edge="1">
          <mxGeometry relative="1" as="geometry"/>
        </mxCell>
        <mxCell id="g6IqDXz1Ok6miaDa0M3m-1786" value="" style="edgeStyle=none;rounded=0;orthogonalLoop=1;jettySize=auto;html=1;strokeColor=#808080;" parent="1" source="1769" target="g6IqDXz1Ok6miaDa0M3m-1785" edge="1">
          <mxGeometry relative="1" as="geometry"/>
        </mxCell>
        <mxCell id="g6IqDXz1Ok6miaDa0M3m-1788" value="" style="edgeStyle=none;rounded=0;orthogonalLoop=1;jettySize=auto;html=1;strokeColor=#808080;" parent="1" source="1769" target="g6IqDXz1Ok6miaDa0M3m-1787" edge="1">
          <mxGeometry relative="1" as="geometry"/>
        </mxCell>
        <mxCell id="g6IqDXz1Ok6miaDa0M3m-1790" value="" style="edgeStyle=none;rounded=0;orthogonalLoop=1;jettySize=auto;html=1;strokeColor=#808080;" parent="1" source="1769" target="g6IqDXz1Ok6miaDa0M3m-1789" edge="1">
          <mxGeometry relative="1" as="geometry"/>
        </mxCell>
        <mxCell id="g6IqDXz1Ok6miaDa0M3m-1797" value="" style="edgeStyle=none;rounded=0;orthogonalLoop=1;jettySize=auto;html=1;strokeColor=#808080;" parent="1" source="1769" target="g6IqDXz1Ok6miaDa0M3m-1796" edge="1">
          <mxGeometry relative="1" as="geometry"/>
        </mxCell>
        <mxCell id="1769" value="Songs&amp;nbsp;" style="rounded=1;whiteSpace=wrap;html=1;shadow=0;labelBackgroundColor=none;strokeColor=#2D7600;strokeWidth=3;fillColor=#60a917;fontFamily=Helvetica;fontSize=14;align=center;spacing=5;arcSize=7;perimeterSpacing=2;fontColor=#ffffff;" parent="1" vertex="1">
          <mxGeometry x="-786" y="-156.25" width="150" height="60" as="geometry"/>
        </mxCell>
        <mxCell id="g6IqDXz1Ok6miaDa0M3m-1796" value="Setliste verwalten, erstelle und anschauen" style="rounded=1;whiteSpace=wrap;html=1;shadow=0;labelBackgroundColor=none;strokeColor=#82b366;strokeWidth=3;fillColor=#d5e8d4;fontFamily=Helvetica;fontSize=14;align=center;spacing=5;arcSize=7;perimeterSpacing=2;gradientColor=#97d077;" parent="1" vertex="1">
          <mxGeometry x="-786" y="-80" width="150" height="60" as="geometry"/>
        </mxCell>
        <mxCell id="g6IqDXz1Ok6miaDa0M3m-1878" value="" style="edgeStyle=none;rounded=0;orthogonalLoop=1;jettySize=auto;html=1;strokeColor=#808080;" parent="1" source="g6IqDXz1Ok6miaDa0M3m-1789" target="g6IqDXz1Ok6miaDa0M3m-1877" edge="1">
          <mxGeometry relative="1" as="geometry"/>
        </mxCell>
        <mxCell id="g6IqDXz1Ok6miaDa0M3m-1789" value="Metadaten bereitstellen und verwalten" style="rounded=1;whiteSpace=wrap;html=1;shadow=0;labelBackgroundColor=none;strokeColor=#82b366;strokeWidth=3;fillColor=#d5e8d4;fontFamily=Helvetica;fontSize=14;align=center;spacing=5;arcSize=7;perimeterSpacing=2;gradientColor=#97d077;" parent="1" vertex="1">
          <mxGeometry x="-620" y="-82.25" width="150" height="60" as="geometry"/>
        </mxCell>
        <mxCell id="g6IqDXz1Ok6miaDa0M3m-1877" value="K체nstler, Songl채nge,&amp;nbsp;" style="rounded=1;whiteSpace=wrap;html=1;shadow=0;labelBackgroundColor=none;strokeColor=#6c8ebf;strokeWidth=3;fillColor=#dae8fc;fontFamily=Helvetica;fontSize=14;align=center;spacing=5;arcSize=7;perimeterSpacing=2;" parent="1" vertex="1">
          <mxGeometry x="-630" y="-1.29" width="150" height="60" as="geometry"/>
        </mxCell>
        <mxCell id="g6IqDXz1Ok6miaDa0M3m-1787" value="Soundfiles&lt;br&gt;bereitstellen und verwalten" style="rounded=1;whiteSpace=wrap;html=1;shadow=0;labelBackgroundColor=none;strokeColor=#82b366;strokeWidth=3;fillColor=#d5e8d4;fontFamily=Helvetica;fontSize=14;align=center;spacing=5;arcSize=7;perimeterSpacing=2;gradientColor=#97d077;" parent="1" vertex="1">
          <mxGeometry x="-951" y="-82.25" width="150" height="60" as="geometry"/>
        </mxCell>
        <mxCell id="g6IqDXz1Ok6miaDa0M3m-1785" value="Noten bereitstellen und transponieren" style="rounded=1;whiteSpace=wrap;html=1;shadow=0;labelBackgroundColor=none;strokeColor=#82b366;strokeWidth=3;fillColor=#d5e8d4;fontFamily=Helvetica;fontSize=14;align=center;spacing=5;arcSize=7;perimeterSpacing=2;gradientColor=#97d077;" parent="1" vertex="1">
          <mxGeometry x="-951" y="-156.25" width="150" height="60" as="geometry"/>
        </mxCell>
        <mxCell id="g6IqDXz1Ok6miaDa0M3m-1783" value="Accorde bereitstellen und transponieren" style="rounded=1;whiteSpace=wrap;html=1;shadow=0;labelBackgroundColor=none;strokeColor=#82b366;strokeWidth=3;fillColor=#d5e8d4;fontFamily=Helvetica;fontSize=14;align=center;spacing=5;arcSize=7;perimeterSpacing=2;gradientColor=#97d077;" parent="1" vertex="1">
          <mxGeometry x="-951" y="-236.75" width="150" height="60" as="geometry"/>
        </mxCell>
        <mxCell id="g6IqDXz1Ok6miaDa0M3m-1781" value="Texte bereitstellen und verwalten" style="rounded=1;whiteSpace=wrap;html=1;shadow=0;labelBackgroundColor=none;strokeColor=#82b366;strokeWidth=3;fillColor=#d5e8d4;fontFamily=Helvetica;fontSize=14;align=center;spacing=5;arcSize=7;perimeterSpacing=2;gradientColor=#97d077;" parent="1" vertex="1">
          <mxGeometry x="-786" y="-236.75" width="150" height="60" as="geometry"/>
        </mxCell>
        <mxCell id="1770" value="" style="edgeStyle=none;rounded=0;jumpStyle=none;html=1;shadow=0;labelBackgroundColor=none;startArrow=none;startFill=0;endArrow=classic;endFill=1;jettySize=auto;orthogonalLoop=1;strokeColor=#82b366;strokeWidth=3;fontFamily=Helvetica;fontSize=14;fontColor=#FFFFFF;spacing=5;gradientColor=#97d077;fillColor=#d5e8d4;" parent="1" source="1764" target="1769" edge="1">
          <mxGeometry relative="1" as="geometry">
            <mxPoint x="-488" y="-66.7833333333333" as="sourcePoint"/>
          </mxGeometry>
        </mxCell>
        <mxCell id="g6IqDXz1Ok6miaDa0M3m-1817" value="" style="edgeStyle=none;rounded=0;orthogonalLoop=1;jettySize=auto;html=1;strokeColor=#808080;" parent="1" source="g6IqDXz1Ok6miaDa0M3m-1814" target="g6IqDXz1Ok6miaDa0M3m-1816" edge="1">
          <mxGeometry relative="1" as="geometry">
            <mxPoint x="-270" y="-570" as="sourcePoint"/>
          </mxGeometry>
        </mxCell>
        <mxCell id="g6IqDXz1Ok6miaDa0M3m-1816" value="Richtlinien" style="rounded=1;whiteSpace=wrap;html=1;shadow=0;labelBackgroundColor=none;strokeColor=#82b366;strokeWidth=3;fillColor=#d5e8d4;fontFamily=Helvetica;fontSize=14;align=center;spacing=5;arcSize=7;perimeterSpacing=2;glass=0;comic=0;gradientColor=#97d077;" parent="1" vertex="1">
          <mxGeometry x="-620" y="-630" width="150" height="60" as="geometry"/>
        </mxCell>
        <mxCell id="g6IqDXz1Ok6miaDa0M3m-1818" value="Aufgaben" style="rounded=1;whiteSpace=wrap;html=1;shadow=0;labelBackgroundColor=none;strokeColor=#82b366;strokeWidth=3;fillColor=#d5e8d4;fontFamily=Helvetica;fontSize=14;align=center;spacing=5;arcSize=7;perimeterSpacing=2;glass=0;comic=0;gradientColor=#97d077;" parent="1" vertex="1">
          <mxGeometry x="-620" y="-710" width="150" height="60" as="geometry"/>
        </mxCell>
        <mxCell id="g6IqDXz1Ok6miaDa0M3m-1821" value="Vertr채ge" style="rounded=1;whiteSpace=wrap;html=1;shadow=0;labelBackgroundColor=none;strokeColor=#82b366;strokeWidth=3;fillColor=#d5e8d4;fontFamily=Helvetica;fontSize=14;align=center;spacing=5;arcSize=7;perimeterSpacing=2;glass=0;comic=0;gradientColor=#97d077;" parent="1" vertex="1">
          <mxGeometry x="-620" y="-790" width="150" height="60" as="geometry"/>
        </mxCell>
        <mxCell id="g6IqDXz1Ok6miaDa0M3m-1822" value="Schriftverkehr" style="rounded=1;whiteSpace=wrap;html=1;shadow=0;labelBackgroundColor=none;strokeColor=#82b366;strokeWidth=3;fillColor=#d5e8d4;fontFamily=Helvetica;fontSize=14;align=center;spacing=5;arcSize=7;perimeterSpacing=2;glass=0;comic=0;gradientColor=#97d077;" parent="1" vertex="1">
          <mxGeometry x="-455" y="-790" width="150" height="60" as="geometry"/>
        </mxCell>
        <mxCell id="g6IqDXz1Ok6miaDa0M3m-1823" value="Vorlagen" style="rounded=1;whiteSpace=wrap;html=1;shadow=0;labelBackgroundColor=none;strokeColor=#82b366;strokeWidth=3;fillColor=#d5e8d4;fontFamily=Helvetica;fontSize=14;align=center;spacing=5;arcSize=7;perimeterSpacing=2;glass=0;comic=0;gradientColor=#97d077;" parent="1" vertex="1">
          <mxGeometry x="-290" y="-790" width="150" height="60" as="geometry"/>
        </mxCell>
        <mxCell id="g6IqDXz1Ok6miaDa0M3m-1824" value="Anfragen" style="rounded=1;whiteSpace=wrap;html=1;shadow=0;labelBackgroundColor=none;strokeColor=#82b366;strokeWidth=3;fillColor=#d5e8d4;fontFamily=Helvetica;fontSize=14;align=center;spacing=5;arcSize=7;perimeterSpacing=2;glass=0;comic=0;gradientColor=#97d077;" parent="1" vertex="1">
          <mxGeometry x="-290" y="-710" width="150" height="60" as="geometry"/>
        </mxCell>
        <mxCell id="g6IqDXz1Ok6miaDa0M3m-1825" value="Layouts/&lt;br&gt;Logos/&lt;br&gt;Visitenkarten/..." style="rounded=1;whiteSpace=wrap;html=1;shadow=0;labelBackgroundColor=none;strokeColor=#82b366;strokeWidth=3;fillColor=#d5e8d4;fontFamily=Helvetica;fontSize=14;align=center;spacing=5;arcSize=7;perimeterSpacing=2;glass=0;comic=0;gradientColor=#97d077;" parent="1" vertex="1">
          <mxGeometry x="-290" y="-630" width="150" height="60" as="geometry"/>
        </mxCell>
        <mxCell id="g6IqDXz1Ok6miaDa0M3m-1826" value="" style="edgeStyle=none;rounded=0;orthogonalLoop=1;jettySize=auto;html=1;strokeColor=#808080;" parent="1" source="g6IqDXz1Ok6miaDa0M3m-1814" target="g6IqDXz1Ok6miaDa0M3m-1825" edge="1">
          <mxGeometry relative="1" as="geometry">
            <mxPoint x="-436" y="-638" as="sourcePoint"/>
            <mxPoint x="-469" y="-622" as="targetPoint"/>
          </mxGeometry>
        </mxCell>
        <mxCell id="g6IqDXz1Ok6miaDa0M3m-1827" value="" style="edgeStyle=none;rounded=0;orthogonalLoop=1;jettySize=auto;html=1;strokeColor=#808080;" parent="1" source="g6IqDXz1Ok6miaDa0M3m-1814" target="g6IqDXz1Ok6miaDa0M3m-1818" edge="1">
          <mxGeometry relative="1" as="geometry">
            <mxPoint x="-426" y="-628" as="sourcePoint"/>
            <mxPoint x="-459" y="-612" as="targetPoint"/>
          </mxGeometry>
        </mxCell>
        <mxCell id="g6IqDXz1Ok6miaDa0M3m-1828" value="" style="edgeStyle=none;rounded=0;orthogonalLoop=1;jettySize=auto;html=1;strokeColor=#808080;" parent="1" source="g6IqDXz1Ok6miaDa0M3m-1814" target="g6IqDXz1Ok6miaDa0M3m-1824" edge="1">
          <mxGeometry relative="1" as="geometry">
            <mxPoint x="-410" y="-590" as="sourcePoint"/>
            <mxPoint x="-449" y="-602" as="targetPoint"/>
          </mxGeometry>
        </mxCell>
        <mxCell id="g6IqDXz1Ok6miaDa0M3m-1829" value="" style="edgeStyle=none;rounded=0;orthogonalLoop=1;jettySize=auto;html=1;strokeColor=#808080;" parent="1" source="g6IqDXz1Ok6miaDa0M3m-1814" target="g6IqDXz1Ok6miaDa0M3m-1821" edge="1">
          <mxGeometry relative="1" as="geometry">
            <mxPoint x="-406" y="-608" as="sourcePoint"/>
            <mxPoint x="-439" y="-592" as="targetPoint"/>
          </mxGeometry>
        </mxCell>
        <mxCell id="g6IqDXz1Ok6miaDa0M3m-1830" value="" style="edgeStyle=none;rounded=0;orthogonalLoop=1;jettySize=auto;html=1;strokeColor=#808080;" parent="1" source="g6IqDXz1Ok6miaDa0M3m-1814" target="g6IqDXz1Ok6miaDa0M3m-1822" edge="1">
          <mxGeometry relative="1" as="geometry">
            <mxPoint x="-396" y="-598" as="sourcePoint"/>
            <mxPoint x="-429" y="-582" as="targetPoint"/>
          </mxGeometry>
        </mxCell>
        <mxCell id="g6IqDXz1Ok6miaDa0M3m-1831" value="" style="edgeStyle=none;rounded=0;orthogonalLoop=1;jettySize=auto;html=1;strokeColor=#808080;" parent="1" source="g6IqDXz1Ok6miaDa0M3m-1814" target="g6IqDXz1Ok6miaDa0M3m-1823" edge="1">
          <mxGeometry relative="1" as="geometry">
            <mxPoint x="-386" y="-588" as="sourcePoint"/>
            <mxPoint x="-419" y="-572" as="targetPoint"/>
          </mxGeometry>
        </mxCell>
        <mxCell id="g6IqDXz1Ok6miaDa0M3m-1915" value="" style="edgeStyle=none;rounded=0;orthogonalLoop=1;jettySize=auto;html=1;strokeColor=#808080;" parent="1" source="g6IqDXz1Ok6miaDa0M3m-1814" target="g6IqDXz1Ok6miaDa0M3m-1914" edge="1">
          <mxGeometry relative="1" as="geometry"/>
        </mxCell>
        <mxCell id="g6IqDXz1Ok6miaDa0M3m-1832" value="Checklisten" style="rounded=1;whiteSpace=wrap;html=1;shadow=0;labelBackgroundColor=none;strokeColor=#82b366;strokeWidth=3;fillColor=#d5e8d4;fontFamily=Helvetica;fontSize=14;align=center;spacing=5;arcSize=7;perimeterSpacing=2;glass=0;comic=0;gradientColor=#97d077;" parent="1" vertex="1">
          <mxGeometry x="-340" y="-550" width="150" height="60" as="geometry"/>
        </mxCell>
        <mxCell id="g6IqDXz1Ok6miaDa0M3m-1914" value="Versionierung" style="rounded=1;whiteSpace=wrap;html=1;shadow=0;labelBackgroundColor=none;strokeColor=#82b366;strokeWidth=3;fillColor=#d5e8d4;fontFamily=Helvetica;fontSize=14;align=center;spacing=5;arcSize=7;perimeterSpacing=2;glass=0;comic=0;gradientColor=#97d077;" parent="1" vertex="1">
          <mxGeometry x="-370" y="-460" width="150" height="60" as="geometry"/>
        </mxCell>
        <mxCell id="g6IqDXz1Ok6miaDa0M3m-1833" value="" style="edgeStyle=none;rounded=0;orthogonalLoop=1;jettySize=auto;html=1;strokeColor=#808080;" parent="1" source="g6IqDXz1Ok6miaDa0M3m-1814" target="g6IqDXz1Ok6miaDa0M3m-1832" edge="1">
          <mxGeometry relative="1" as="geometry">
            <mxPoint x="-370" y="-151.50000000000023" as="sourcePoint"/>
            <mxPoint x="-370" y="-638" as="targetPoint"/>
          </mxGeometry>
        </mxCell>
        <mxCell id="g6IqDXz1Ok6miaDa0M3m-1834" value="Vorschlagsliste" style="rounded=1;whiteSpace=wrap;html=1;shadow=0;labelBackgroundColor=none;strokeColor=#82b366;strokeWidth=3;fillColor=#d5e8d4;fontFamily=Helvetica;fontSize=14;align=center;spacing=5;arcSize=7;perimeterSpacing=2;glass=0;comic=0;gradientColor=#97d077;" parent="1" vertex="1">
          <mxGeometry x="-570" y="-560" width="150" height="60" as="geometry"/>
        </mxCell>
        <mxCell id="g6IqDXz1Ok6miaDa0M3m-1835" value="" style="edgeStyle=none;rounded=0;orthogonalLoop=1;jettySize=auto;html=1;strokeColor=#808080;" parent="1" source="g6IqDXz1Ok6miaDa0M3m-1814" target="g6IqDXz1Ok6miaDa0M3m-1834" edge="1">
          <mxGeometry relative="1" as="geometry">
            <mxPoint x="-347" y="-638" as="sourcePoint"/>
            <mxPoint x="-278" y="-542" as="targetPoint"/>
          </mxGeometry>
        </mxCell>
        <mxCell id="g6IqDXz1Ok6miaDa0M3m-1836" value="Finanzen" style="rounded=1;whiteSpace=wrap;html=1;shadow=0;labelBackgroundColor=none;strokeColor=#2D7600;strokeWidth=3;fillColor=#60a917;fontFamily=Helvetica;fontSize=14;align=center;spacing=5;fontStyle=1;arcSize=7;perimeterSpacing=2;fontColor=#ffffff;" parent="1" vertex="1">
          <mxGeometry x="-110" y="-710" width="150" height="60" as="geometry"/>
        </mxCell>
        <mxCell id="g6IqDXz1Ok6miaDa0M3m-1839" value="Gewinn- und Verlustliste" style="rounded=1;whiteSpace=wrap;html=1;shadow=0;labelBackgroundColor=none;strokeColor=#82b366;strokeWidth=3;fillColor=#d5e8d4;fontFamily=Helvetica;fontSize=14;align=center;spacing=5;arcSize=7;perimeterSpacing=2;glass=0;comic=0;gradientColor=#97d077;" parent="1" vertex="1">
          <mxGeometry x="65" y="-710" width="150" height="60" as="geometry"/>
        </mxCell>
        <mxCell id="g6IqDXz1Ok6miaDa0M3m-1840" value="Belege verwalten" style="rounded=1;whiteSpace=wrap;html=1;shadow=0;labelBackgroundColor=none;strokeColor=#82b366;strokeWidth=3;fillColor=#d5e8d4;fontFamily=Helvetica;fontSize=14;align=center;spacing=5;arcSize=7;perimeterSpacing=2;glass=0;comic=0;gradientColor=#97d077;" parent="1" vertex="1">
          <mxGeometry x="-110" y="-790" width="150" height="60" as="geometry"/>
        </mxCell>
        <mxCell id="g6IqDXz1Ok6miaDa0M3m-1846" value="" style="edgeStyle=none;rounded=0;orthogonalLoop=1;jettySize=auto;html=1;strokeColor=#808080;" parent="1" source="g6IqDXz1Ok6miaDa0M3m-1836" target="g6IqDXz1Ok6miaDa0M3m-1839" edge="1">
          <mxGeometry relative="1" as="geometry">
            <mxPoint x="-81" y="-628" as="sourcePoint"/>
            <mxPoint x="-114" y="-612" as="targetPoint"/>
          </mxGeometry>
        </mxCell>
        <mxCell id="g6IqDXz1Ok6miaDa0M3m-1848" value="" style="edgeStyle=none;rounded=0;orthogonalLoop=1;jettySize=auto;html=1;strokeColor=#808080;" parent="1" source="g6IqDXz1Ok6miaDa0M3m-1836" target="g6IqDXz1Ok6miaDa0M3m-1840" edge="1">
          <mxGeometry relative="1" as="geometry">
            <mxPoint x="-61" y="-608" as="sourcePoint"/>
            <mxPoint x="-94" y="-592" as="targetPoint"/>
          </mxGeometry>
        </mxCell>
        <mxCell id="g6IqDXz1Ok6miaDa0M3m-1855" value="Rechnungen" style="rounded=1;whiteSpace=wrap;html=1;shadow=0;labelBackgroundColor=none;strokeColor=#82b366;strokeWidth=3;fillColor=#d5e8d4;fontFamily=Helvetica;fontSize=14;align=center;spacing=5;arcSize=7;perimeterSpacing=2;glass=0;comic=0;gradientColor=#97d077;" parent="1" vertex="1">
          <mxGeometry x="65" y="-790" width="150" height="60" as="geometry"/>
        </mxCell>
        <mxCell id="g6IqDXz1Ok6miaDa0M3m-1857" value="" style="edgeStyle=none;rounded=0;orthogonalLoop=1;jettySize=auto;html=1;strokeColor=#808080;" parent="1" source="g6IqDXz1Ok6miaDa0M3m-1836" target="g6IqDXz1Ok6miaDa0M3m-1855" edge="1">
          <mxGeometry relative="1" as="geometry">
            <mxPoint x="-25" y="-702" as="sourcePoint"/>
            <mxPoint x="-25" y="-718" as="targetPoint"/>
          </mxGeometry>
        </mxCell>
        <mxCell id="g6IqDXz1Ok6miaDa0M3m-1858" value="" style="edgeStyle=none;rounded=0;orthogonalLoop=1;jettySize=auto;html=1;strokeColor=#808080;entryX=0.25;entryY=1;entryDx=0;entryDy=0;" parent="1" source="1764" target="g6IqDXz1Ok6miaDa0M3m-1836" edge="1">
          <mxGeometry relative="1" as="geometry">
            <mxPoint x="-370" y="-151.5" as="sourcePoint"/>
            <mxPoint x="-370" y="-638" as="targetPoint"/>
          </mxGeometry>
        </mxCell>
        <mxCell id="g6IqDXz1Ok6miaDa0M3m-1859" value="Chatsystem" style="rounded=1;whiteSpace=wrap;html=1;shadow=0;labelBackgroundColor=none;strokeColor=#2D7600;strokeWidth=3;fillColor=#60a917;fontFamily=Helvetica;fontSize=14;align=center;spacing=5;fontStyle=1;arcSize=7;perimeterSpacing=2;fontColor=#ffffff;" parent="1" vertex="1">
          <mxGeometry x="-110" y="-470" width="150" height="60" as="geometry"/>
        </mxCell>
        <mxCell id="g6IqDXz1Ok6miaDa0M3m-1860" value="Inhalte in Text, Bild, Ton, video" style="rounded=1;whiteSpace=wrap;html=1;shadow=0;labelBackgroundColor=none;strokeColor=#82b366;strokeWidth=3;fillColor=#d5e8d4;fontFamily=Helvetica;fontSize=14;align=center;spacing=5;arcSize=7;perimeterSpacing=2;glass=0;comic=0;gradientColor=#97d077;" parent="1" vertex="1">
          <mxGeometry x="65" y="-470" width="150" height="60" as="geometry"/>
        </mxCell>
        <mxCell id="g6IqDXz1Ok6miaDa0M3m-1861" value="Globaler Chat" style="rounded=1;whiteSpace=wrap;html=1;shadow=0;labelBackgroundColor=none;strokeColor=#82b366;strokeWidth=3;fillColor=#d5e8d4;fontFamily=Helvetica;fontSize=14;align=center;spacing=5;arcSize=7;perimeterSpacing=2;glass=0;comic=0;gradientColor=#97d077;" parent="1" vertex="1">
          <mxGeometry x="-110" y="-550" width="150" height="60" as="geometry"/>
        </mxCell>
        <mxCell id="g6IqDXz1Ok6miaDa0M3m-1862" value="" style="edgeStyle=none;rounded=0;orthogonalLoop=1;jettySize=auto;html=1;strokeColor=#808080;" parent="1" source="g6IqDXz1Ok6miaDa0M3m-1859" target="g6IqDXz1Ok6miaDa0M3m-1860" edge="1">
          <mxGeometry relative="1" as="geometry">
            <mxPoint x="-81" y="-388" as="sourcePoint"/>
            <mxPoint x="-114" y="-372" as="targetPoint"/>
          </mxGeometry>
        </mxCell>
        <mxCell id="g6IqDXz1Ok6miaDa0M3m-1863" value="" style="edgeStyle=none;rounded=0;orthogonalLoop=1;jettySize=auto;html=1;strokeColor=#808080;" parent="1" source="g6IqDXz1Ok6miaDa0M3m-1859" target="g6IqDXz1Ok6miaDa0M3m-1861" edge="1">
          <mxGeometry relative="1" as="geometry">
            <mxPoint x="-61" y="-368" as="sourcePoint"/>
            <mxPoint x="-94" y="-352" as="targetPoint"/>
          </mxGeometry>
        </mxCell>
        <mxCell id="g6IqDXz1Ok6miaDa0M3m-1864" value="1 zu 1 Chat mit allen Nutzern" style="rounded=1;whiteSpace=wrap;html=1;shadow=0;labelBackgroundColor=none;strokeColor=#82b366;strokeWidth=3;fillColor=#d5e8d4;fontFamily=Helvetica;fontSize=14;align=center;spacing=5;arcSize=7;perimeterSpacing=2;glass=0;comic=0;gradientColor=#97d077;" parent="1" vertex="1">
          <mxGeometry x="65" y="-550" width="150" height="60" as="geometry"/>
        </mxCell>
        <mxCell id="g6IqDXz1Ok6miaDa0M3m-1865" value="" style="edgeStyle=none;rounded=0;orthogonalLoop=1;jettySize=auto;html=1;strokeColor=#808080;" parent="1" source="g6IqDXz1Ok6miaDa0M3m-1859" target="g6IqDXz1Ok6miaDa0M3m-1864" edge="1">
          <mxGeometry relative="1" as="geometry">
            <mxPoint x="-25" y="-462" as="sourcePoint"/>
            <mxPoint x="-25" y="-478" as="targetPoint"/>
          </mxGeometry>
        </mxCell>
        <mxCell id="g6IqDXz1Ok6miaDa0M3m-1866" value="" style="edgeStyle=none;rounded=0;orthogonalLoop=1;jettySize=auto;html=1;strokeColor=#808080;" parent="1" source="1764" target="g6IqDXz1Ok6miaDa0M3m-1859" edge="1">
          <mxGeometry relative="1" as="geometry">
            <mxPoint x="-349.94550408719306" y="-151.50000000000023" as="sourcePoint"/>
            <mxPoint x="-45.05449591280694" y="-638" as="targetPoint"/>
          </mxGeometry>
        </mxCell>
        <mxCell id="g6IqDXz1Ok6miaDa0M3m-1867" value="Benachrichtigungs-&lt;br&gt;system" style="rounded=1;whiteSpace=wrap;html=1;shadow=0;labelBackgroundColor=none;strokeColor=#2D7600;strokeWidth=3;fillColor=#60a917;fontFamily=Helvetica;fontSize=14;align=center;spacing=5;fontStyle=1;arcSize=7;perimeterSpacing=2;fontColor=#ffffff;" parent="1" vertex="1">
          <mxGeometry x="-110" y="-280" width="150" height="60" as="geometry"/>
        </mxCell>
        <mxCell id="g6IqDXz1Ok6miaDa0M3m-1868" value="Push-Benachrichtigung bei gew체nscht" style="rounded=1;whiteSpace=wrap;html=1;shadow=0;labelBackgroundColor=none;strokeColor=#82b366;strokeWidth=3;fillColor=#d5e8d4;fontFamily=Helvetica;fontSize=14;align=center;spacing=5;arcSize=7;perimeterSpacing=2;glass=0;comic=0;gradientColor=#97d077;" parent="1" vertex="1">
          <mxGeometry x="65" y="-280" width="150" height="60" as="geometry"/>
        </mxCell>
        <mxCell id="g6IqDXz1Ok6miaDa0M3m-1869" value="Zu allen Ereignissen, die den Nutzer betreffen" style="rounded=1;whiteSpace=wrap;html=1;shadow=0;labelBackgroundColor=none;strokeColor=#82b366;strokeWidth=3;fillColor=#d5e8d4;fontFamily=Helvetica;fontSize=14;align=center;spacing=5;arcSize=7;perimeterSpacing=2;glass=0;comic=0;gradientColor=#97d077;" parent="1" vertex="1">
          <mxGeometry x="-110" y="-360" width="150" height="60" as="geometry"/>
        </mxCell>
        <mxCell id="g6IqDXz1Ok6miaDa0M3m-1870" value="" style="edgeStyle=none;rounded=0;orthogonalLoop=1;jettySize=auto;html=1;strokeColor=#808080;" parent="1" source="g6IqDXz1Ok6miaDa0M3m-1867" target="g6IqDXz1Ok6miaDa0M3m-1868" edge="1">
          <mxGeometry relative="1" as="geometry">
            <mxPoint x="-81" y="-198" as="sourcePoint"/>
            <mxPoint x="-114" y="-182" as="targetPoint"/>
          </mxGeometry>
        </mxCell>
        <mxCell id="g6IqDXz1Ok6miaDa0M3m-1871" value="" style="edgeStyle=none;rounded=0;orthogonalLoop=1;jettySize=auto;html=1;strokeColor=#808080;" parent="1" source="g6IqDXz1Ok6miaDa0M3m-1867" target="g6IqDXz1Ok6miaDa0M3m-1869" edge="1">
          <mxGeometry relative="1" as="geometry">
            <mxPoint x="-61" y="-178" as="sourcePoint"/>
            <mxPoint x="-94" y="-162" as="targetPoint"/>
          </mxGeometry>
        </mxCell>
        <mxCell id="g6IqDXz1Ok6miaDa0M3m-1872" value="einstellbar in optionen" style="rounded=1;whiteSpace=wrap;html=1;shadow=0;labelBackgroundColor=none;strokeColor=#82b366;strokeWidth=3;fillColor=#d5e8d4;fontFamily=Helvetica;fontSize=14;align=center;spacing=5;arcSize=7;perimeterSpacing=2;glass=0;comic=0;gradientColor=#97d077;" parent="1" vertex="1">
          <mxGeometry x="65" y="-360" width="150" height="60" as="geometry"/>
        </mxCell>
        <mxCell id="g6IqDXz1Ok6miaDa0M3m-1873" value="" style="edgeStyle=none;rounded=0;orthogonalLoop=1;jettySize=auto;html=1;strokeColor=#808080;" parent="1" source="g6IqDXz1Ok6miaDa0M3m-1867" target="g6IqDXz1Ok6miaDa0M3m-1872" edge="1">
          <mxGeometry relative="1" as="geometry">
            <mxPoint x="-25" y="-272" as="sourcePoint"/>
            <mxPoint x="-25" y="-288" as="targetPoint"/>
          </mxGeometry>
        </mxCell>
        <mxCell id="g6IqDXz1Ok6miaDa0M3m-1874" value="" style="edgeStyle=none;rounded=0;orthogonalLoop=1;jettySize=auto;html=1;strokeColor=#808080;" parent="1" source="1764" target="g6IqDXz1Ok6miaDa0M3m-1867" edge="1">
          <mxGeometry relative="1" as="geometry">
            <mxPoint x="-334.44444444444434" y="-151.5" as="sourcePoint"/>
            <mxPoint x="-60.55555555555566" y="-398" as="targetPoint"/>
          </mxGeometry>
        </mxCell>
        <mxCell id="g6IqDXz1Ok6miaDa0M3m-1875" value="Chronik" style="rounded=1;whiteSpace=wrap;html=1;shadow=0;labelBackgroundColor=none;strokeColor=#82b366;strokeWidth=3;fillColor=#d5e8d4;fontFamily=Helvetica;fontSize=14;align=center;spacing=5;arcSize=7;perimeterSpacing=2;glass=0;comic=0;gradientColor=#97d077;" parent="1" vertex="1">
          <mxGeometry x="-540" y="-480" width="150" height="60" as="geometry"/>
        </mxCell>
        <mxCell id="g6IqDXz1Ok6miaDa0M3m-1876" value="" style="edgeStyle=none;rounded=0;orthogonalLoop=1;jettySize=auto;html=1;strokeColor=#808080;entryX=0.75;entryY=0;entryDx=0;entryDy=0;exitX=0.5;exitY=1;exitDx=0;exitDy=0;" parent="1" source="g6IqDXz1Ok6miaDa0M3m-1814" target="g6IqDXz1Ok6miaDa0M3m-1875" edge="1">
          <mxGeometry relative="1" as="geometry">
            <mxPoint x="-394.5333333333333" y="-638" as="sourcePoint"/>
            <mxPoint x="-460.4666666666667" y="-552" as="targetPoint"/>
          </mxGeometry>
        </mxCell>
        <mxCell id="g6IqDXz1Ok6miaDa0M3m-1900" value="" style="edgeStyle=none;rounded=0;orthogonalLoop=1;jettySize=auto;html=1;strokeColor=#808080;" parent="1" source="g6IqDXz1Ok6miaDa0M3m-1885" target="g6IqDXz1Ok6miaDa0M3m-1899" edge="1">
          <mxGeometry relative="1" as="geometry"/>
        </mxCell>
        <mxCell id="g6IqDXz1Ok6miaDa0M3m-1885" value="Sicherheitskonzept" style="rounded=1;whiteSpace=wrap;html=1;shadow=0;labelBackgroundColor=none;strokeColor=#b85450;strokeWidth=3;fillColor=#f8cecc;fontFamily=Helvetica;fontSize=14;align=center;spacing=5;fontStyle=0;arcSize=7;perimeterSpacing=2;gradientColor=#ea6b66;" parent="1" vertex="1">
          <mxGeometry x="-650" y="210" width="150" height="60" as="geometry"/>
        </mxCell>
        <mxCell id="g6IqDXz1Ok6miaDa0M3m-1899" value="DsGVo" style="rounded=1;whiteSpace=wrap;html=1;shadow=0;labelBackgroundColor=none;strokeColor=#ae4132;strokeWidth=3;fillColor=#fad9d5;fontFamily=Helvetica;fontSize=14;align=center;spacing=5;fontStyle=0;arcSize=7;perimeterSpacing=2;" parent="1" vertex="1">
          <mxGeometry x="-880" y="210" width="150" height="60" as="geometry"/>
        </mxCell>
        <mxCell id="g6IqDXz1Ok6miaDa0M3m-1886" value="Benutzerverwaltung" style="rounded=1;whiteSpace=wrap;html=1;shadow=0;labelBackgroundColor=none;strokeColor=#2D7600;strokeWidth=3;fillColor=#60a917;fontFamily=Helvetica;fontSize=14;align=center;spacing=5;fontStyle=1;arcSize=7;perimeterSpacing=2;fontColor=#ffffff;" parent="1" vertex="1">
          <mxGeometry x="-110" y="-200" width="150" height="60" as="geometry"/>
        </mxCell>
        <mxCell id="g6IqDXz1Ok6miaDa0M3m-1888" value="Berechtigungskonzept" style="rounded=1;whiteSpace=wrap;html=1;shadow=0;labelBackgroundColor=none;strokeColor=#82b366;strokeWidth=3;fillColor=#d5e8d4;fontFamily=Helvetica;fontSize=14;align=center;spacing=5;arcSize=7;perimeterSpacing=2;glass=0;comic=0;gradientColor=#97d077;" parent="1" vertex="1">
          <mxGeometry x="65" y="-200" width="150" height="60" as="geometry"/>
        </mxCell>
        <mxCell id="g6IqDXz1Ok6miaDa0M3m-1890" value="" style="edgeStyle=none;rounded=0;orthogonalLoop=1;jettySize=auto;html=1;strokeColor=#808080;" parent="1" source="g6IqDXz1Ok6miaDa0M3m-1886" target="g6IqDXz1Ok6miaDa0M3m-1888" edge="1">
          <mxGeometry relative="1" as="geometry">
            <mxPoint x="-61" y="-17.5" as="sourcePoint"/>
            <mxPoint x="-94" y="-1.5" as="targetPoint"/>
          </mxGeometry>
        </mxCell>
        <mxCell id="g6IqDXz1Ok6miaDa0M3m-1893" value="" style="edgeStyle=none;rounded=0;orthogonalLoop=1;jettySize=auto;html=1;strokeColor=#808080;" parent="1" source="1764" target="g6IqDXz1Ok6miaDa0M3m-1886" edge="1">
          <mxGeometry relative="1" as="geometry">
            <mxPoint x="-293" y="-146.3942028985507" as="sourcePoint"/>
            <mxPoint x="-102" y="-213.1057971014493" as="targetPoint"/>
          </mxGeometry>
        </mxCell>
        <mxCell id="g6IqDXz1Ok6miaDa0M3m-1894" value="Benutzer verwalten" style="rounded=1;whiteSpace=wrap;html=1;shadow=0;labelBackgroundColor=none;strokeColor=#82b366;strokeWidth=3;fillColor=#d5e8d4;fontFamily=Helvetica;fontSize=14;align=center;spacing=5;arcSize=7;perimeterSpacing=2;glass=0;comic=0;gradientColor=#97d077;" parent="1" vertex="1">
          <mxGeometry x="-100" y="-110" width="150" height="60" as="geometry"/>
        </mxCell>
        <mxCell id="g6IqDXz1Ok6miaDa0M3m-1895" value="Rechte vergeben" style="rounded=1;whiteSpace=wrap;html=1;shadow=0;labelBackgroundColor=none;strokeColor=#82b366;strokeWidth=3;fillColor=#d5e8d4;fontFamily=Helvetica;fontSize=14;align=center;spacing=5;arcSize=7;perimeterSpacing=2;glass=0;comic=0;gradientColor=#97d077;" parent="1" vertex="1">
          <mxGeometry x="65" y="-110" width="150" height="60" as="geometry"/>
        </mxCell>
        <mxCell id="g6IqDXz1Ok6miaDa0M3m-1896" value="" style="edgeStyle=none;rounded=0;orthogonalLoop=1;jettySize=auto;html=1;strokeColor=#808080;" parent="1" source="g6IqDXz1Ok6miaDa0M3m-1888" target="g6IqDXz1Ok6miaDa0M3m-1895" edge="1">
          <mxGeometry relative="1" as="geometry">
            <mxPoint x="52" y="-160" as="sourcePoint"/>
            <mxPoint x="73" y="-160" as="targetPoint"/>
          </mxGeometry>
        </mxCell>
        <mxCell id="g6IqDXz1Ok6miaDa0M3m-1897" value="" style="edgeStyle=none;rounded=0;orthogonalLoop=1;jettySize=auto;html=1;strokeColor=#808080;" parent="1" source="g6IqDXz1Ok6miaDa0M3m-1888" target="g6IqDXz1Ok6miaDa0M3m-1894" edge="1">
          <mxGeometry relative="1" as="geometry">
            <mxPoint x="62" y="-150" as="sourcePoint"/>
            <mxPoint x="83" y="-150" as="targetPoint"/>
          </mxGeometry>
        </mxCell>
        <mxCell id="g6IqDXz1Ok6miaDa0M3m-1901" value="2-Factor-Authentification" style="rounded=1;whiteSpace=wrap;html=1;shadow=0;labelBackgroundColor=none;strokeColor=#ae4132;strokeWidth=3;fillColor=#fad9d5;fontFamily=Helvetica;fontSize=14;align=center;spacing=5;fontStyle=0;arcSize=7;perimeterSpacing=2;" parent="1" vertex="1">
          <mxGeometry x="-880" y="290" width="150" height="60" as="geometry"/>
        </mxCell>
        <mxCell id="g6IqDXz1Ok6miaDa0M3m-1902" value="Backup- und Wiederherstellungs-&lt;br&gt;konzept" style="rounded=1;whiteSpace=wrap;html=1;shadow=0;labelBackgroundColor=none;strokeColor=#ae4132;strokeWidth=3;fillColor=#fad9d5;fontFamily=Helvetica;fontSize=14;align=center;spacing=5;fontStyle=0;arcSize=7;perimeterSpacing=2;" parent="1" vertex="1">
          <mxGeometry x="-880" y="130" width="150" height="60" as="geometry"/>
        </mxCell>
        <mxCell id="g6IqDXz1Ok6miaDa0M3m-1903" value="" style="edgeStyle=none;rounded=0;orthogonalLoop=1;jettySize=auto;html=1;strokeColor=#808080;" parent="1" source="g6IqDXz1Ok6miaDa0M3m-1885" target="g6IqDXz1Ok6miaDa0M3m-1901" edge="1">
          <mxGeometry relative="1" as="geometry">
            <mxPoint x="-642" y="250" as="sourcePoint"/>
            <mxPoint x="-718" y="250" as="targetPoint"/>
          </mxGeometry>
        </mxCell>
        <mxCell id="g6IqDXz1Ok6miaDa0M3m-1904" value="" style="edgeStyle=none;rounded=0;orthogonalLoop=1;jettySize=auto;html=1;strokeColor=#808080;" parent="1" source="g6IqDXz1Ok6miaDa0M3m-1885" target="g6IqDXz1Ok6miaDa0M3m-1902" edge="1">
          <mxGeometry relative="1" as="geometry">
            <mxPoint x="-632" y="260" as="sourcePoint"/>
            <mxPoint x="-708" y="260" as="targetPoint"/>
          </mxGeometry>
        </mxCell>
        <mxCell id="g6IqDXz1Ok6miaDa0M3m-1905" value="Dockerf채hig" style="rounded=1;whiteSpace=wrap;html=1;shadow=0;labelBackgroundColor=none;strokeColor=#ae4132;strokeWidth=3;fillColor=#fad9d5;fontFamily=Helvetica;fontSize=14;align=center;spacing=5;fontStyle=0;arcSize=7;perimeterSpacing=2;" parent="1" vertex="1">
          <mxGeometry x="-650" y="120" width="150" height="60" as="geometry"/>
        </mxCell>
        <mxCell id="g6IqDXz1Ok6miaDa0M3m-1906" value="" style="edgeStyle=none;rounded=0;orthogonalLoop=1;jettySize=auto;html=1;strokeColor=#808080;" parent="1" source="g6IqDXz1Ok6miaDa0M3m-1885" target="g6IqDXz1Ok6miaDa0M3m-1905" edge="1">
          <mxGeometry relative="1" as="geometry">
            <mxPoint x="-642" y="223.21739130434798" as="sourcePoint"/>
            <mxPoint x="-718" y="196.78260869565202" as="targetPoint"/>
          </mxGeometry>
        </mxCell>
        <mxCell id="g6IqDXz1Ok6miaDa0M3m-1913" value="Push-Benachrichtigung" style="rounded=1;whiteSpace=wrap;html=1;shadow=0;labelBackgroundColor=none;strokeColor=#ae4132;strokeWidth=3;fillColor=#fad9d5;fontFamily=Helvetica;fontSize=14;align=center;spacing=5;fontStyle=0;arcSize=7;perimeterSpacing=2;" parent="1" vertex="1">
          <mxGeometry x="-650" y="450" width="150" height="60" as="geometry"/>
        </mxCell>
        <mxCell id="g6IqDXz1Ok6miaDa0M3m-1916" value="" style="edgeStyle=none;rounded=0;orthogonalLoop=1;jettySize=auto;html=1;strokeColor=#808080;" parent="1" source="1755" target="g6IqDXz1Ok6miaDa0M3m-1913" edge="1">
          <mxGeometry relative="1" as="geometry">
            <mxPoint x="-642" y="436.782608695652" as="sourcePoint"/>
            <mxPoint x="-718" y="463.217391304348" as="targetPoint"/>
          </mxGeometry>
        </mxCell>
        <mxCell id="g6IqDXz1Ok6miaDa0M3m-1919" value="Platformunabh채ngig" style="rounded=1;whiteSpace=wrap;html=1;shadow=0;labelBackgroundColor=none;strokeColor=#ae4132;strokeWidth=3;fillColor=#fad9d5;fontFamily=Helvetica;fontSize=14;align=center;spacing=5;fontStyle=0;arcSize=7;perimeterSpacing=2;" parent="1" vertex="1">
          <mxGeometry x="-20" y="130" width="150" height="60" as="geometry"/>
        </mxCell>
        <mxCell id="g6IqDXz1Ok6miaDa0M3m-1920" value="" style="edgeStyle=none;rounded=0;orthogonalLoop=1;jettySize=auto;html=1;strokeColor=#808080;" parent="1" source="1754" target="g6IqDXz1Ok6miaDa0M3m-1919" edge="1">
          <mxGeometry relative="1" as="geometry">
            <mxPoint x="-88" y="250" as="sourcePoint"/>
            <mxPoint x="-12" y="250" as="targetPoint"/>
          </mxGeometry>
        </mxCell>
        <mxCell id="g6IqDXz1Ok6miaDa0M3m-1921" value="Datenhaltung" style="rounded=1;whiteSpace=wrap;html=1;shadow=0;labelBackgroundColor=none;strokeColor=#b85450;strokeWidth=3;fillColor=#f8cecc;fontFamily=Helvetica;fontSize=14;align=center;spacing=5;fontStyle=0;arcSize=7;perimeterSpacing=2;gradientColor=#ea6b66;" parent="1" vertex="1">
          <mxGeometry x="-250" y="370" width="150" height="60" as="geometry"/>
        </mxCell>
        <mxCell id="g6IqDXz1Ok6miaDa0M3m-1922" value="" style="edgeStyle=none;rounded=0;orthogonalLoop=1;jettySize=auto;html=1;strokeColor=#808080;" parent="1" source="1753" target="g6IqDXz1Ok6miaDa0M3m-1921" edge="1">
          <mxGeometry relative="1" as="geometry">
            <mxPoint x="-88.00000000000045" y="250" as="sourcePoint"/>
            <mxPoint x="-12" y="250" as="targetPoint"/>
          </mxGeometry>
        </mxCell>
        <mxCell id="g6IqDXz1Ok6miaDa0M3m-1923" value="Offline verf체gbare Texte und Setlists sowie weiteres" style="rounded=1;whiteSpace=wrap;html=1;shadow=0;labelBackgroundColor=none;strokeColor=#ae4132;strokeWidth=3;fillColor=#fad9d5;fontFamily=Helvetica;fontSize=14;align=center;spacing=5;fontStyle=0;arcSize=7;perimeterSpacing=2;" parent="1" vertex="1">
          <mxGeometry x="-20" y="370" width="150" height="60" as="geometry"/>
        </mxCell>
        <mxCell id="g6IqDXz1Ok6miaDa0M3m-1924" value="" style="edgeStyle=none;rounded=0;orthogonalLoop=1;jettySize=auto;html=1;strokeColor=#808080;" parent="1" source="g6IqDXz1Ok6miaDa0M3m-1921" target="g6IqDXz1Ok6miaDa0M3m-1923" edge="1">
          <mxGeometry relative="1" as="geometry">
            <mxPoint x="-328.99999999999955" y="282" as="sourcePoint"/>
            <mxPoint x="-206" y="378" as="targetPoint"/>
          </mxGeometry>
        </mxCell>
        <mxCell id="g6IqDXz1Ok6miaDa0M3m-1925" value="Zugriff auf Module und Funktionen einschr채nkbar" style="rounded=1;whiteSpace=wrap;html=1;shadow=0;labelBackgroundColor=none;strokeColor=#ae4132;strokeWidth=3;fillColor=#fad9d5;fontFamily=Helvetica;fontSize=14;align=center;spacing=5;fontStyle=0;arcSize=7;perimeterSpacing=2;" parent="1" vertex="1">
          <mxGeometry x="-680" y="290" width="150" height="60" as="geometry"/>
        </mxCell>
        <mxCell id="g6IqDXz1Ok6miaDa0M3m-1926" value="" style="edgeStyle=none;rounded=0;orthogonalLoop=1;jettySize=auto;html=1;strokeColor=#808080;" parent="1" source="g6IqDXz1Ok6miaDa0M3m-1885" target="g6IqDXz1Ok6miaDa0M3m-1925" edge="1">
          <mxGeometry relative="1" as="geometry">
            <mxPoint x="-642" y="276.782608695652" as="sourcePoint"/>
            <mxPoint x="-718" y="303.21739130434753" as="targetPoint"/>
          </mxGeometry>
        </mxCell>
        <mxCell id="g6IqDXz1Ok6miaDa0M3m-1927" value="WYSIWYG-Editoren f체r Inhalte" style="rounded=1;whiteSpace=wrap;html=1;shadow=0;labelBackgroundColor=none;strokeColor=#ae4132;strokeWidth=3;fillColor=#fad9d5;fontFamily=Helvetica;fontSize=14;align=center;spacing=5;fontStyle=0;arcSize=7;perimeterSpacing=2;" parent="1" vertex="1">
          <mxGeometry x="-20" y="290" width="150" height="60" as="geometry"/>
        </mxCell>
        <mxCell id="g6IqDXz1Ok6miaDa0M3m-1928" value="" style="edgeStyle=none;rounded=0;orthogonalLoop=1;jettySize=auto;html=1;strokeColor=#808080;" parent="1" source="1754" target="g6IqDXz1Ok6miaDa0M3m-1927" edge="1">
          <mxGeometry relative="1" as="geometry">
            <mxPoint x="-88.00000000000045" y="250" as="sourcePoint"/>
            <mxPoint x="-12" y="250" as="targetPoint"/>
          </mxGeometry>
        </mxCell>
        <mxCell id="g6IqDXz1Ok6miaDa0M3m-1929" value="Dark- und Lightmode" style="rounded=1;whiteSpace=wrap;html=1;shadow=0;labelBackgroundColor=none;strokeColor=#ae4132;strokeWidth=3;fillColor=#fad9d5;fontFamily=Helvetica;fontSize=14;align=center;spacing=5;fontStyle=0;arcSize=7;perimeterSpacing=2;" parent="1" vertex="1">
          <mxGeometry x="-20" y="50" width="150" height="60" as="geometry"/>
        </mxCell>
        <mxCell id="g6IqDXz1Ok6miaDa0M3m-1930" value="" style="edgeStyle=none;rounded=0;orthogonalLoop=1;jettySize=auto;html=1;strokeColor=#808080;" parent="1" source="1754" target="g6IqDXz1Ok6miaDa0M3m-1929" edge="1">
          <mxGeometry relative="1" as="geometry">
            <mxPoint x="-88" y="223.21739130434776" as="sourcePoint"/>
            <mxPoint x="-12" y="196.78260869565224" as="targetPoint"/>
          </mxGeometry>
        </mxCell>
      </root>
    </mxGraphModel>
  </diagram>
</mxfile>
